<svg width="38" height="32" viewBox="0 0 38 32" fill="none" xmlns="http://www.w3.org/2000/svg">
<path fill-rule="evenodd" clip-rule="evenodd" d="M0.25 16C0.25 15.1371 0.949555 14.4375 1.8125 14.4375H36.1875C37.0504 14.4375 37.75 15.1371 37.75 16C37.75 16.8629 37.0504 17.5625 36.1875 17.5625H1.8125C0.949555 17.5625 0.25 16.8629 0.25 16Z" fill="white"/>
<path fill-rule="evenodd" clip-rule="evenodd" d="M16.9799 0.832646C17.59 1.44284 17.59 2.43216 16.9799 3.04235L4.02221 16L16.9799 28.9576C17.59 29.5678 17.59 30.5572 16.9799 31.1674C16.3697 31.7775 15.3803 31.7775 14.7701 31.1674L0.707646 17.1049C0.0974514 16.4947 0.0974514 15.5053 0.707646 14.8951L14.7701 0.832646C15.3803 0.222451 16.3697 0.222451 16.9799 0.832646Z" fill="white"/>
</svg>
